<mxfile host="app.diagrams.net" modified="2021-05-08T10:28:57.707Z" agent="5.0 (Windows NT 10.0; Win64; x64) AppleWebKit/537.36 (KHTML, like Gecko) Chrome/90.0.4430.93 Safari/537.36" etag="78q0W2YCWEzOvznR3jgM" version="14.6.11" type="github">
  <diagram id="TFVVUKBu-hhXwRltEdNP" name="Page-1">
    <mxGraphModel dx="4740" dy="2540" grid="1" gridSize="10" guides="0" tooltips="1" connect="1" arrows="1" fold="1" page="1" pageScale="1" pageWidth="5000" pageHeight="3000" math="0" shadow="0">
      <root>
        <mxCell id="0" />
        <mxCell id="1" parent="0" />
        <mxCell id="IsKmeeJijTPSRjMwdKZ4-13" style="edgeStyle=orthogonalEdgeStyle;rounded=0;orthogonalLoop=1;jettySize=auto;html=1;fontSize=25;" edge="1" parent="1" source="IsKmeeJijTPSRjMwdKZ4-1">
          <mxGeometry relative="1" as="geometry">
            <mxPoint x="600" y="300" as="targetPoint" />
            <Array as="points">
              <mxPoint x="360" y="150" />
              <mxPoint x="360" y="180" />
              <mxPoint x="600" y="180" />
            </Array>
          </mxGeometry>
        </mxCell>
        <mxCell id="IsKmeeJijTPSRjMwdKZ4-22" style="edgeStyle=orthogonalEdgeStyle;rounded=0;orthogonalLoop=1;jettySize=auto;html=1;entryX=0;entryY=0.5;entryDx=0;entryDy=0;fontSize=25;" edge="1" parent="1" target="IsKmeeJijTPSRjMwdKZ4-14">
          <mxGeometry relative="1" as="geometry">
            <mxPoint x="210" y="270" as="sourcePoint" />
            <Array as="points">
              <mxPoint x="210" y="560" />
              <mxPoint x="400" y="560" />
              <mxPoint x="400" y="690" />
            </Array>
          </mxGeometry>
        </mxCell>
        <mxCell id="IsKmeeJijTPSRjMwdKZ4-1" value="&lt;font style=&quot;font-size: 26px&quot;&gt;CUSTOMER&lt;/font&gt;" style="shape=umlActor;verticalLabelPosition=bottom;verticalAlign=top;html=1;outlineConnect=0;fontStyle=1" vertex="1" parent="1">
          <mxGeometry x="160" y="60" width="100" height="160" as="geometry" />
        </mxCell>
        <mxCell id="IsKmeeJijTPSRjMwdKZ4-4" value="LOGIN PAGE" style="swimlane;fontSize=22;startSize=70;labelBackgroundColor=#E6E6E6;" vertex="1" parent="1">
          <mxGeometry x="610" y="60" width="520" height="380" as="geometry" />
        </mxCell>
        <mxCell id="IsKmeeJijTPSRjMwdKZ4-27" value="Example input placeholder" style="html=1;shadow=0;dashed=0;shape=mxgraph.bootstrap.rrect;rSize=5;fillColor=none;strokeColor=#999999;align=left;spacing=15;fontSize=14;fontColor=#6C767D;labelBackgroundColor=none;" vertex="1" parent="IsKmeeJijTPSRjMwdKZ4-4">
          <mxGeometry width="320" height="40" relative="1" as="geometry">
            <mxPoint x="90" y="135" as="offset" />
          </mxGeometry>
        </mxCell>
        <mxCell id="IsKmeeJijTPSRjMwdKZ4-29" value="Another input placeholder" style="html=1;shadow=0;dashed=0;shape=mxgraph.bootstrap.rrect;rSize=5;fillColor=none;strokeColor=#999999;align=left;spacing=15;fontSize=14;fontColor=#6C767D;labelBackgroundColor=none;" vertex="1" parent="IsKmeeJijTPSRjMwdKZ4-4">
          <mxGeometry width="320" height="40" relative="1" as="geometry">
            <mxPoint x="90" y="231" as="offset" />
          </mxGeometry>
        </mxCell>
        <mxCell id="IsKmeeJijTPSRjMwdKZ4-26" value="USERNAME" style="fillColor=none;strokeColor=none;align=left;fontSize=14;fontColor=#212529;labelBackgroundColor=none;" vertex="1" parent="IsKmeeJijTPSRjMwdKZ4-4">
          <mxGeometry x="90" y="90" width="260" height="40" as="geometry" />
        </mxCell>
        <mxCell id="IsKmeeJijTPSRjMwdKZ4-28" value="PASSWORD" style="fillColor=none;strokeColor=none;align=left;fontSize=14;fontColor=#212529;labelBackgroundColor=none;" vertex="1" parent="IsKmeeJijTPSRjMwdKZ4-4">
          <mxGeometry width="260" height="40" relative="1" as="geometry">
            <mxPoint x="90" y="190" as="offset" />
          </mxGeometry>
        </mxCell>
        <mxCell id="IsKmeeJijTPSRjMwdKZ4-30" value="LOGIN" style="rounded=1;fillColor=#0057D8;align=center;strokeColor=none;html=1;fontColor=#ffffff;fontSize=12;labelBackgroundColor=none;" vertex="1" parent="IsKmeeJijTPSRjMwdKZ4-4">
          <mxGeometry x="210" y="290" width="80" height="33" as="geometry" />
        </mxCell>
        <mxCell id="IsKmeeJijTPSRjMwdKZ4-14" value="REGISTRATION PAGE" style="swimlane;fontSize=22;startSize=70;labelBackgroundColor=#E6E6E6;" vertex="1" parent="1">
          <mxGeometry x="610" y="500" width="520" height="760" as="geometry" />
        </mxCell>
        <mxCell id="IsKmeeJijTPSRjMwdKZ4-32" value="Example input placeholder" style="html=1;shadow=0;dashed=0;shape=mxgraph.bootstrap.rrect;rSize=5;fillColor=none;strokeColor=#999999;align=left;spacing=15;fontSize=14;fontColor=#6C767D;labelBackgroundColor=none;" vertex="1" parent="IsKmeeJijTPSRjMwdKZ4-14">
          <mxGeometry x="90" y="135" width="320" height="40" as="geometry" />
        </mxCell>
        <mxCell id="IsKmeeJijTPSRjMwdKZ4-33" value="Another input placeholder" style="html=1;shadow=0;dashed=0;shape=mxgraph.bootstrap.rrect;rSize=5;fillColor=none;strokeColor=#999999;align=left;spacing=15;fontSize=14;fontColor=#6C767D;labelBackgroundColor=none;" vertex="1" parent="IsKmeeJijTPSRjMwdKZ4-14">
          <mxGeometry x="90" y="231" width="320" height="40" as="geometry" />
        </mxCell>
        <mxCell id="IsKmeeJijTPSRjMwdKZ4-34" value="FIRSTNAME" style="fillColor=none;strokeColor=none;align=left;fontSize=14;fontColor=#212529;labelBackgroundColor=none;" vertex="1" parent="IsKmeeJijTPSRjMwdKZ4-14">
          <mxGeometry x="90" y="90" width="260" height="40" as="geometry" />
        </mxCell>
        <mxCell id="IsKmeeJijTPSRjMwdKZ4-35" value="LASTNAME" style="fillColor=none;strokeColor=none;align=left;fontSize=14;fontColor=#212529;labelBackgroundColor=none;" vertex="1" parent="IsKmeeJijTPSRjMwdKZ4-14">
          <mxGeometry x="90" y="190" width="260" height="40" as="geometry" />
        </mxCell>
        <mxCell id="IsKmeeJijTPSRjMwdKZ4-36" value="Example input placeholder" style="html=1;shadow=0;dashed=0;shape=mxgraph.bootstrap.rrect;rSize=5;fillColor=none;strokeColor=#999999;align=left;spacing=15;fontSize=14;fontColor=#6C767D;labelBackgroundColor=none;" vertex="1" parent="IsKmeeJijTPSRjMwdKZ4-14">
          <mxGeometry x="90" y="325" width="320" height="40" as="geometry" />
        </mxCell>
        <mxCell id="IsKmeeJijTPSRjMwdKZ4-37" value="USERNAME" style="fillColor=none;strokeColor=none;align=left;fontSize=14;fontColor=#212529;labelBackgroundColor=none;" vertex="1" parent="IsKmeeJijTPSRjMwdKZ4-14">
          <mxGeometry x="90" y="280" width="260" height="40" as="geometry" />
        </mxCell>
        <mxCell id="IsKmeeJijTPSRjMwdKZ4-38" value="Example input placeholder" style="html=1;shadow=0;dashed=0;shape=mxgraph.bootstrap.rrect;rSize=5;fillColor=none;strokeColor=#999999;align=left;spacing=15;fontSize=14;fontColor=#6C767D;labelBackgroundColor=none;" vertex="1" parent="IsKmeeJijTPSRjMwdKZ4-14">
          <mxGeometry x="90" y="425" width="320" height="40" as="geometry" />
        </mxCell>
        <mxCell id="IsKmeeJijTPSRjMwdKZ4-39" value="EMAIL" style="fillColor=none;strokeColor=none;align=left;fontSize=14;fontColor=#212529;labelBackgroundColor=none;" vertex="1" parent="IsKmeeJijTPSRjMwdKZ4-14">
          <mxGeometry x="90" y="380" width="260" height="40" as="geometry" />
        </mxCell>
        <mxCell id="IsKmeeJijTPSRjMwdKZ4-40" value="Example input placeholder" style="html=1;shadow=0;dashed=0;shape=mxgraph.bootstrap.rrect;rSize=5;fillColor=none;strokeColor=#999999;align=left;spacing=15;fontSize=14;fontColor=#6C767D;labelBackgroundColor=none;" vertex="1" parent="IsKmeeJijTPSRjMwdKZ4-14">
          <mxGeometry x="90" y="525" width="320" height="40" as="geometry" />
        </mxCell>
        <mxCell id="IsKmeeJijTPSRjMwdKZ4-41" value="PASSWORD" style="fillColor=none;strokeColor=none;align=left;fontSize=14;fontColor=#212529;labelBackgroundColor=none;" vertex="1" parent="IsKmeeJijTPSRjMwdKZ4-14">
          <mxGeometry x="90" y="480" width="260" height="40" as="geometry" />
        </mxCell>
        <mxCell id="IsKmeeJijTPSRjMwdKZ4-42" value="Example input placeholder" style="html=1;shadow=0;dashed=0;shape=mxgraph.bootstrap.rrect;rSize=5;fillColor=none;strokeColor=#999999;align=left;spacing=15;fontSize=14;fontColor=#6C767D;labelBackgroundColor=none;" vertex="1" parent="IsKmeeJijTPSRjMwdKZ4-14">
          <mxGeometry x="90" y="625" width="320" height="40" as="geometry" />
        </mxCell>
        <mxCell id="IsKmeeJijTPSRjMwdKZ4-43" value="RE ENTER PASSWORD" style="fillColor=none;strokeColor=none;align=left;fontSize=14;fontColor=#212529;labelBackgroundColor=none;" vertex="1" parent="IsKmeeJijTPSRjMwdKZ4-14">
          <mxGeometry x="90" y="580" width="260" height="40" as="geometry" />
        </mxCell>
        <mxCell id="IsKmeeJijTPSRjMwdKZ4-44" value="REGISTER" style="rounded=1;fillColor=#0057D8;align=center;strokeColor=none;html=1;fontColor=#ffffff;fontSize=12;labelBackgroundColor=none;" vertex="1" parent="IsKmeeJijTPSRjMwdKZ4-14">
          <mxGeometry x="210" y="680" width="80" height="33" as="geometry" />
        </mxCell>
        <mxCell id="IsKmeeJijTPSRjMwdKZ4-23" value="If registered" style="text;html=1;strokeColor=none;fillColor=none;align=center;verticalAlign=middle;whiteSpace=wrap;rounded=0;labelBackgroundColor=none;fontSize=25;" vertex="1" parent="1">
          <mxGeometry x="380" y="140" width="170" height="20" as="geometry" />
        </mxCell>
        <mxCell id="IsKmeeJijTPSRjMwdKZ4-24" value="Text" style="text;html=1;strokeColor=none;fillColor=none;align=center;verticalAlign=middle;whiteSpace=wrap;rounded=0;labelBackgroundColor=#E6E6E6;fontSize=25;" vertex="1" parent="1">
          <mxGeometry x="380" y="400" width="40" height="20" as="geometry" />
        </mxCell>
        <mxCell id="IsKmeeJijTPSRjMwdKZ4-25" value="If not registered" style="text;html=1;strokeColor=none;fillColor=none;align=center;verticalAlign=middle;whiteSpace=wrap;rounded=0;labelBackgroundColor=none;fontSize=25;" vertex="1" parent="1">
          <mxGeometry x="410" y="640" width="170" height="20" as="geometry" />
        </mxCell>
      </root>
    </mxGraphModel>
  </diagram>
</mxfile>
